<?xml version="1.0" encoding="UTF-8"?>
<svg width="518px" height="518px" viewBox="0 0 518 518" version="1.1" xmlns="http://www.w3.org/2000/svg" xmlns:xlink="http://www.w3.org/1999/xlink">
    <!-- Generator: sketchtool 58 (101010) - https://sketch.com -->
    <title>9CDA20ED-661D-44E7-8C41-60EADC413F60@1</title>
    <desc>Created with sketchtool.</desc>
    <g id="Page-1" stroke="none" stroke-width="1" fill="none" fill-rule="evenodd">
        <g id="Connected-cars" transform="translate(-92.000000, -702.000000)" fill-rule="nonzero">
            <g id="main-1" transform="translate(93.000000, 702.500000)">
                <path d="M258,411.5 C343.051851,411.5 412,342.551851 412,257.5 C412,172.448149 343.051851,103.5 258,103.5 C172.948149,103.5 104,172.448149 104,257.5 C104,342.551851 172.948149,411.5 258,411.5 Z" id="Dots" stroke="#A8A6A6" stroke-dasharray="5"></path>
                <path d="M258,516.5 C400.489465,516.5 516,400.989465 516,258.5 C516,116.010535 400.489465,0.5 258,0.5 C115.510535,0.5 0,116.010535 0,258.5 C0,400.989465 115.510535,516.5 258,516.5 Z" id="Blue-Dots" stroke="#B1D3F9" stroke-dasharray="13"></path>
                <circle id="Blue-line" stroke="#CFE5FF" cx="258.5" cy="258" r="194.5"></circle>
            </g>
        </g>
    </g>
</svg>