<svg width="2527" height="724" viewBox="0 0 2527 724" fill="none" xmlns="http://www.w3.org/2000/svg">
<path d="M1304 724C2024.18 724 2224 561.927 2224 362C2224 162.073 2024.18 0 1304 0C583.821 0 0 162.073 0 362C0 561.927 583.821 724 1304 724Z" fill="#DFEEFE"/>
<path d="M1541 663.513C2309.49 771.801 2527 724.383 2527 543.982C2527 436.725 2527 -171.4 2150.83 184.551C2073.9 257.35 2005.57 247.719 1757.24 247.719C1515.08 247.719 1378.71 82.8261 1244.06 365.48C1241.45 370.964 1270.89 324.896 1244.06 322.684C1100.8 310.874 675.163 121.801 397.626 193.209C318.895 213.466 227.718 161.822 151.856 162.941C65.4748 164.215 0 181.104 0 217.305C0 305.882 66.0531 339.277 221.797 605.856C377.541 872.435 1052.22 594.639 1541 663.513Z" fill="url(#paint0_linear)"/>
<defs>
<linearGradient id="paint0_linear" x1="1263.5" y1="74" x2="1263.5" y2="724" gradientUnits="userSpaceOnUse">
<stop stop-color="#21AACB"/>
<stop offset="1" stop-color="#5F56D9"/>
</linearGradient>
</defs>
</svg>
